<svg width="10" height="6" viewBox="0 0 10 6" fill="none" xmlns="http://www.w3.org/2000/svg">
<path d="M0.617061 1.19381C0.542106 1.1188 0.5 1.0171 0.5 0.911059C0.5 0.805044 0.542086 0.703367 0.617008 0.628366C0.617026 0.628349 0.617044 0.628331 0.617061 0.628313C0.617079 0.628295 0.617097 0.628277 0.617115 0.62826C0.692116 0.553338 0.793793 0.511252 0.899808 0.511252C1.00585 0.511252 1.10755 0.553358 1.18255 0.628313C1.18257 0.628331 1.18259 0.628349 1.18261 0.628366L4.14625 3.59201L4.49981 3.94557L4.85336 3.59201L7.81706 0.628313L7.81711 0.628366L7.82315 0.622115C7.86005 0.583911 7.90419 0.553438 7.95299 0.532475L7.75681 0.0757708L7.95299 0.532475C8.00179 0.511511 8.05428 0.500477 8.10739 0.500015C8.1605 0.499554 8.21318 0.509674 8.26233 0.529787C8.31149 0.549899 8.35615 0.5796 8.39371 0.617157L8.74692 0.263943L8.39371 0.617159C8.43127 0.654715 8.46097 0.699375 8.48108 0.748534C8.50119 0.797693 8.51131 0.850365 8.51085 0.903475C8.51039 0.956589 8.49936 1.00908 8.47839 1.05787C8.45743 1.10668 8.42696 1.15082 8.38875 1.18771L8.3887 1.18766L8.38255 1.19381L4.78261 4.79375C4.78259 4.79377 4.78257 4.79379 4.78255 4.79381C4.70755 4.86876 4.60585 4.91087 4.49981 4.91087C4.39377 4.91087 4.29207 4.86876 4.21706 4.79381C4.21704 4.79379 4.21703 4.79377 4.21701 4.79375L0.617115 1.19386M0.617061 1.19381L0.263508 1.54736L0.617115 1.19386M0.617061 1.19381C0.617079 1.19382 0.617097 1.19384 0.617115 1.19386M0.617061 1.19381L0.617115 1.19386" stroke="#4F4F4F"/>
</svg>
